<svg xmlns="http://www.w3.org/2000/svg" viewBox="0 0 64 64">
  <rect width="64" height="64" rx="14" fill="#0a0f14"/>
  <defs>
    <linearGradient id="g" x1="0%" y1="0%" x2="100%" y2="0%">
      <stop offset="0%"   stop-color="#00e5b0"/>
      <stop offset="100%" stop-color="#00cfff"/>
    </linearGradient>
  </defs>
  <!-- Símbolo infinito -->
  <path d="M 10 32
           C 10 21, 18 15, 25 18.5
           C 29.5 21, 31 27, 32 32
           C 33 37, 34.5 43, 39 45.5
           C 46 49, 54 43, 54 32
           C 54 21, 46 15, 39 18.5
           C 34.5 21, 33 27, 32 32
           C 31 37, 29.5 43, 25 45.5
           C 18 49, 10 43, 10 32 Z"
        fill="none" stroke="url(#g)" stroke-width="4" stroke-linecap="round"/>
  <!-- Punto central -->
  <circle cx="32" cy="32" r="3.5" fill="#00cfff" opacity="0.95"/>
  <circle cx="32" cy="32" r="1.5" fill="#ffffff"/>
</svg>
