<svg width="32" height="32" viewBox="0 0 32 32" fill="none" xmlns="http://www.w3.org/2000/svg">
  <defs>
    <linearGradient id="g" x1="4" y1="8" x2="28" y2="24" gradientUnits="userSpaceOnUse">
      <stop offset="0%"   stop-color="#20F7DC"/>
      <stop offset="50%"  stop-color="#4A74FF"/>
      <stop offset="100%" stop-color="#B173E0"/>
    </linearGradient>
    <filter id="gl" x="-50%" y="-50%" width="200%" height="200%">
      <feGaussianBlur stdDeviation="1.2" result="b"/>
      <feMerge><feMergeNode in="b"/><feMergeNode in="SourceGraphic"/></feMerge>
    </filter>
  </defs>
  <rect width="32" height="32" rx="7" fill="#0B0F1A"/>
  <path d="M 6 16 C 6 12, 9.5 9.5, 12.5 11 C 14.2 12, 15 14, 16 16 C 17 18, 17.8 20, 19.5 21 C 22.5 22.5, 26 20, 26 16 C 26 12, 22.5 9.5, 19.5 11 C 17.8 12, 17 14, 16 16 C 15 18, 14.2 20, 12.5 21 C 9.5 22.5, 6 20, 6 16 Z"
    fill="none" stroke="url(#g)" stroke-width="2" stroke-linecap="round" filter="url(#gl)"/>
  <circle cx="16" cy="16" r="1.5" fill="#00CFFF"/>
  <circle cx="16" cy="16" r="0.7" fill="#FFFFFF"/>
</svg>
